<svg width="203" height="41" viewBox="0 0 203 41" fill="none" xmlns="http://www.w3.org/2000/svg">
<path d="M4 27.1701V36.5H66.8915V31.3785V4.5L4 27.1701Z" fill="#0D9488"/>
<path d="M4 17.125V26.1803L18.0624 21.0268L4 17.125Z" fill="#343A4E"/>
<path d="M90.3289 15.0687L86.4344 16.3652C85.9143 14.8296 84.798 14.0618 83.1108 14.0618C81.2968 14.0618 80.3961 14.6408 80.3961 15.8114C80.3961 16.2771 80.561 16.6673 80.9036 16.9945C81.2461 17.3218 82.0072 17.5987 83.1996 17.8379C85.1913 18.2407 86.6501 18.6435 87.5761 19.0462C88.5022 19.449 89.276 20.1036 89.9103 21.0098C90.5445 21.9161 90.8617 22.9231 90.8617 24.0433C90.8617 25.7929 90.1767 27.316 88.8193 28.5872C87.462 29.8711 85.445 30.5005 82.781 30.5005C80.7767 30.5005 79.0768 30.0473 77.6687 29.1411C76.2607 28.2348 75.3346 26.888 74.8906 25.1132L79.1276 24.1566C79.6096 25.9691 80.9289 26.8754 83.0981 26.8754C84.151 26.8754 84.9249 26.674 85.445 26.2712C85.9524 25.8684 86.2188 25.3901 86.2188 24.8237C86.2188 24.2573 85.9904 23.8167 85.5211 23.5021C85.0517 23.1874 84.151 22.8979 82.8191 22.621C80.3327 22.1049 78.5567 21.4126 77.5038 20.5315C76.4509 19.6504 75.9182 18.354 75.9182 16.6421C75.9182 14.9303 76.5524 13.4702 77.8083 12.287C79.0768 11.1038 80.7894 10.5122 82.9459 10.5122C86.7769 10.5122 89.2379 12.0352 90.3416 15.0687H90.3289Z" fill="#27272A"/>
<path d="M106.12 10.8052L99.98 22.0328V30.2019H95.4132V22.0328L89.2734 10.8052H94.5887L98.3182 18.1434L102.022 10.8052H106.132H106.12Z" fill="#27272A"/>
<path d="M119.212 15.0687L115.317 16.3652C114.797 14.8296 113.681 14.0618 111.994 14.0618C110.18 14.0618 109.279 14.6408 109.279 15.8114C109.279 16.2771 109.444 16.6673 109.786 16.9945C110.129 17.3218 110.89 17.5987 112.082 17.8379C114.074 18.2407 115.533 18.6435 116.459 19.0462C117.385 19.449 118.159 20.1036 118.793 21.0098C119.427 21.9161 119.744 22.9231 119.744 24.0433C119.744 25.7929 119.059 27.316 117.702 28.5872C116.345 29.8711 114.328 30.5005 111.664 30.5005C109.66 30.5005 107.96 30.0473 106.552 29.1411C105.143 28.2348 104.217 26.888 103.773 25.1132L108.01 24.1566C108.492 25.9691 109.812 26.8754 111.981 26.8754C113.034 26.8754 113.808 26.674 114.328 26.2712C114.835 25.8684 115.102 25.3901 115.102 24.8237C115.102 24.2573 114.873 23.8167 114.404 23.5021C113.935 23.1874 113.034 22.8979 111.702 22.621C109.216 22.1049 107.44 21.4126 106.387 20.5315C105.334 19.6504 104.801 18.354 104.801 16.6421C104.801 14.9303 105.435 13.4702 106.691 12.287C107.96 11.1038 109.672 10.5122 111.829 10.5122C115.66 10.5122 118.133 12.0352 119.224 15.0687H119.212Z" fill="#27272A"/>
<path d="M129.925 30.2019L125.104 14.3925V30.2019H121.273V10.8052H128.403L131.828 22.4105L135.443 10.8052H142.598V30.2019H137.98V14.3925L133.058 30.2019H129.925Z" fill="#27272A"/>
<path d="M158.966 14.5058H149.655V18.4833H156.974V22.1335H149.655V26.3628H158.966V30.2019H145.012V10.8052H158.966V14.4932V14.5058Z" fill="#27272A"/>
<path d="M174.622 10.8052V14.6442H169.776V30.2019H165.133V14.6442H160.262V10.8052H174.609H174.622Z" fill="#27272A"/>
<path d="M180.684 10.8052V30.2019H176.117V10.8052H180.684Z" fill="#27272A"/>
<path d="M198.892 18.0263L194.097 18.3284C194.034 15.5844 192.956 14.225 190.875 14.225C188.478 14.225 187.285 16.3271 187.285 20.5438C187.285 22.9731 187.615 24.6346 188.262 25.4905C188.909 26.359 189.822 26.7869 190.989 26.7869C192.879 26.7869 194.034 25.566 194.465 23.1241L198.905 23.3884C198.613 25.7045 197.751 27.4792 196.292 28.675C194.833 29.8834 193.057 30.4875 190.939 30.4875C188.351 30.4875 186.245 29.6065 184.634 27.8317C183.01 26.0569 182.211 23.615 182.211 20.4808C182.211 17.5606 182.997 15.1565 184.558 13.2936C186.118 11.4307 188.262 10.4993 190.977 10.4993C195.67 10.4993 198.322 13.0041 198.905 18.0138L198.892 18.0263Z" fill="#27272A"/>
</svg>
