<svg width="235" height="39" viewBox="0 0 235 39" fill="none" xmlns="http://www.w3.org/2000/svg">
<path d="M0 27.1823V38.3692H75.4092V32.2283V0L0 27.1823Z" fill="#0D9488"/>
<path d="M0 15.1367V25.9943L16.8613 19.8151L0 15.1367Z" fill="#27272A"/>
<path d="M85 8.39258H104.011V13.5035H97.7154V29.9752H91.2651V13.5035H85V8.39258Z" fill="#27272A"/>
<path d="M118.7 29.9752L115.83 24.1562H112.435V29.9752H106.015V8.39258H116.107C119.008 8.39258 121.251 9.05966 122.835 10.3938C124.44 11.728 125.243 13.6163 125.243 16.0589C125.243 17.6394 124.924 19.0146 124.286 20.1845C123.669 21.334 122.774 22.2474 121.601 22.9247L125.983 29.9752H118.7ZM112.435 19.2301H116.107C117.074 19.2301 117.815 18.9735 118.33 18.4604C118.864 17.9472 119.132 17.2083 119.132 16.2436C119.132 15.2994 118.864 14.581 118.33 14.0884C117.815 13.5753 117.074 13.3187 116.107 13.3187H112.435V19.2301Z" fill="#27272A"/>
<path d="M144.211 29.9752L142.946 26.5269H134.212L132.915 29.9752H126.311L135.539 8.39258H142.143L151.063 29.9752H144.211ZM136.002 21.8471H141.248L138.656 14.7966L136.002 21.8471Z" fill="#27272A"/>
<path d="M162.116 8.39258C164.42 8.39258 166.447 8.84414 168.196 9.74727C169.965 10.6299 171.333 11.8922 172.3 13.5342C173.267 15.1558 173.751 17.0339 173.751 19.1685C173.751 21.3032 173.257 23.1915 172.269 24.8336C171.282 26.4756 169.893 27.7482 168.103 28.6513C166.313 29.5339 164.245 29.9752 161.9 29.9752H152.641V8.39258H162.116ZM162.301 24.9567C163.762 24.9567 164.945 24.4333 165.85 23.3865C166.755 22.3397 167.208 20.9542 167.208 19.2301C167.208 17.5059 166.724 16.1102 165.757 15.0429C164.79 13.9755 163.535 13.4419 161.992 13.4419H159.06V24.9567H162.301Z" fill="#27272A"/>
<path d="M176.149 8.39258H193.834V13.3187H182.569V16.7054H192.784V21.6316H182.569V25.0491H194.142V29.9752H176.149V8.39258Z" fill="#27272A"/>
<path d="M197.217 8.39258H203.636V24.6181H212.71V29.9752H197.217V8.39258Z" fill="#27272A"/>
<path d="M235 8.39258L227.222 23.1402V29.9752H220.803V23.2634L212.871 8.39258H219.29L224.012 17.1981L228.611 8.39258H235Z" fill="#27272A"/>
</svg>
