<svg width="800" height="400" viewBox="0 0 800 400" fill="none" xmlns="http://www.w3.org/2000/svg">
<rect width="800" height="400" fill="url(#paint0_linear_420_37586)"/>
<path d="M152 216.365V238.738H302.818V226.457V162L152 216.365Z" fill="white"/>
<path d="M152 192.273V213.989L185.723 201.63L152 192.273Z" fill="white"/>
<path d="M323 176H366.346V187.603H351.991V225H337.285V187.603H323V176Z" fill="white"/>
<path d="M399.836 225L393.292 211.789H385.551V225H370.915V176H393.925C400.54 176 405.653 177.515 409.265 180.544C412.924 183.573 414.754 187.86 414.754 193.405C414.754 196.993 414.027 200.116 412.572 202.772C411.165 205.381 409.124 207.455 406.45 208.993L416.443 225H399.836ZM385.551 200.605H393.925C396.13 200.605 397.819 200.022 398.992 198.857C400.211 197.692 400.821 196.015 400.821 193.825C400.821 191.681 400.211 190.05 398.992 188.932C397.819 187.767 396.13 187.184 393.925 187.184H385.551V200.605Z" fill="white"/>
<path d="M458.002 225L455.117 217.171H435.203L432.248 225H417.189L438.229 176H453.287L473.624 225H458.002ZM439.284 206.546H451.247L445.336 190.539L439.284 206.546Z" fill="white"/>
<path d="M498.824 176C504.078 176 508.699 177.025 512.687 179.076C516.721 181.079 519.841 183.945 522.045 187.673C524.25 191.355 525.353 195.619 525.353 200.465C525.353 205.311 524.227 209.599 521.975 213.327C519.723 217.055 516.557 219.944 512.475 221.994C508.394 223.998 503.68 225 498.332 225H477.222V176H498.824ZM499.246 213.606C502.577 213.606 505.275 212.418 507.339 210.041C509.403 207.665 510.435 204.519 510.435 200.605C510.435 196.69 509.332 193.522 507.128 191.098C504.923 188.675 502.061 187.464 498.543 187.464H491.858V213.606H499.246Z" fill="white"/>
<path d="M530.822 176H571.142V187.184H545.458V194.873H568.749V206.057H545.458V213.816H571.846V225H530.822V176Z" fill="white"/>
<path d="M578.855 176H593.492V212.837H614.18V225H578.855V176Z" fill="white"/>
<path d="M665 176L647.267 209.482V225H632.631V209.762L614.547 176H629.183L639.949 195.991L650.434 176H665Z" fill="white"/>
<defs>
<linearGradient id="paint0_linear_420_37586" x1="350" y1="1.72853e-05" x2="662" y2="400" gradientUnits="userSpaceOnUse">
<stop stop-color="#0D9488"/>
<stop offset="1" stop-color="#115E59"/>
</linearGradient>
</defs>
</svg>
