<svg width="800" height="400" viewBox="0 0 800 400" fill="none" xmlns="http://www.w3.org/2000/svg">
<g clip-path="url(#clip0_407_11875)">
<rect width="800" height="400" fill="url(#paint0_linear_407_11875)"/>
<path d="M155.999 216.675V240H313.228V227.196V160L155.999 216.675Z" fill="white"/>
<path d="M155.999 191.562V214.201L191.155 201.317L155.999 191.562Z" fill="white"/>
<path d="M371.823 186.423L362.087 189.664C360.787 185.825 357.996 183.905 353.778 183.905C349.243 183.905 346.991 185.353 346.991 188.279C346.991 189.443 347.404 190.419 348.26 191.237C349.116 192.055 351.019 192.748 354 193.345C358.979 194.352 362.626 195.359 364.941 196.366C367.256 197.373 369.191 199.01 370.777 201.275C372.362 203.541 373.155 206.058 373.155 208.859C373.155 213.233 371.443 217.041 368.049 220.219C364.656 223.429 359.613 225.002 352.953 225.002C347.943 225.002 343.693 223.869 340.173 221.603C336.653 219.338 334.338 215.971 333.228 211.534L343.82 209.142C345.025 213.674 348.323 215.939 353.746 215.939C356.379 215.939 358.313 215.436 359.613 214.429C360.882 213.422 361.548 212.226 361.548 210.81C361.548 209.394 360.977 208.293 359.804 207.506C358.63 206.719 356.379 205.995 353.049 205.303C346.833 204.013 342.393 202.282 339.761 200.08C337.128 197.877 335.796 194.636 335.796 190.356C335.796 186.076 337.382 182.426 340.522 179.468C343.693 176.51 347.974 175.031 353.366 175.031C362.943 175.031 369.096 178.839 371.855 186.423H371.823Z" fill="white"/>
<path d="M411.3 175.762L395.951 203.831V224.253H384.534V203.831L369.185 175.762H382.473L391.796 194.107L401.057 175.762H411.332H411.3Z" fill="white"/>
<path d="M444.027 186.423L434.291 189.664C432.991 185.825 430.2 183.905 425.982 183.905C421.447 183.905 419.195 185.353 419.195 188.279C419.195 189.443 419.608 190.419 420.464 191.237C421.32 192.055 423.223 192.748 426.204 193.345C431.183 194.352 434.83 195.359 437.145 196.366C439.46 197.373 441.395 199.01 442.981 201.275C444.566 203.541 445.359 206.058 445.359 208.859C445.359 213.233 443.647 217.041 440.253 220.219C436.86 223.429 431.817 225.002 425.158 225.002C420.147 225.002 415.897 223.869 412.377 221.603C408.857 219.338 406.542 215.971 405.432 211.534L416.024 209.142C417.229 213.674 420.527 215.939 425.95 215.939C428.583 215.939 430.517 215.436 431.817 214.429C433.086 213.422 433.752 212.226 433.752 210.81C433.752 209.394 433.181 208.293 432.008 207.506C430.834 206.719 428.583 205.995 425.253 205.303C419.037 204.013 414.597 202.282 411.965 200.08C409.332 197.877 408 194.636 408 190.356C408 186.076 409.586 182.426 412.726 179.468C415.897 176.51 420.179 175.031 425.57 175.031C435.147 175.031 441.332 178.839 444.059 186.423H444.027Z" fill="white"/>
<path d="M470.816 224.253L458.765 184.73V224.253H449.187V175.762H467.01L475.573 204.775L484.611 175.762H502.498V224.253H490.954V184.73L478.649 224.253H470.816Z" fill="white"/>
<path d="M543.418 185.013H520.14V194.957H538.439V204.083H520.14V214.656H543.418V224.253H508.533V175.762H543.418V184.982V185.013Z" fill="white"/>
<path d="M582.555 175.762V185.359H570.441V224.253H558.833V185.359H546.655V175.762H582.524H582.555Z" fill="white"/>
<path d="M597.706 175.762V224.253H586.289V175.762H597.706Z" fill="white"/>
<path d="M643.229 193.818L631.242 194.573C631.083 187.713 628.387 184.314 623.186 184.314C617.192 184.314 614.211 189.57 614.211 200.111C614.211 206.184 615.036 210.338 616.653 212.478C618.271 214.649 620.554 215.719 623.472 215.719C628.197 215.719 631.083 212.667 632.161 206.562L643.261 207.223C642.532 213.013 640.375 217.45 636.728 220.439C633.081 223.46 628.641 224.971 623.345 224.971C616.875 224.971 611.611 222.768 607.583 218.331C603.524 213.894 601.526 207.789 601.526 199.954C601.526 192.653 603.492 186.643 607.393 181.986C611.294 177.329 616.653 175 623.44 175C635.174 175 641.802 181.262 643.261 193.786L643.229 193.818Z" fill="white"/>
</g>
<defs>
<linearGradient id="paint0_linear_407_11875" x1="184.795" y1="113.396" x2="532.977" y2="512.059" gradientUnits="userSpaceOnUse">
<stop stop-color="#0D9488"/>
<stop offset="0.570435" stop-color="#0F766E"/>
<stop offset="1" stop-color="#115E59"/>
</linearGradient>
<clipPath id="clip0_407_11875">
<rect width="800" height="400" fill="white"/>
</clipPath>
</defs>
</svg>
